<svg xmlns="http://www.w3.org/2000/svg" width="232" height="69" viewBox="0 0 232 69" fill="none">
<path d="M143.2 38C145.9 37.4 147.6 35.4 147.6 32.8C147.6 29.7 145.2 27.5 141.8 27.5H136.4C136 27.5 135.7 27.8 135.7 28.2C135.7 28.6 136 28.9 136.4 28.9H141.6C144.2 28.9 146 30.5 146 32.8C146 35.1 144.2 36.7 141.6 36.7H136.4C136 36.7 135.7 37 135.7 37.4C135.7 37.8 136 38.1 136.4 38.1H141.3L146.5 45C146.7 45.3 146.9 45.4 147.2 45.4C147.6 45.4 148 45.1 148 44.6C148 44.4 147.9 44.2 147.7 43.9L143.2 38Z" fill="#E30613"/>
<path d="M163.5 43.9H153.2V36.7H162C162.4 36.7 162.7 36.4 162.7 36C162.7 35.6 162.4 35.3 162 35.3H153.2V28.9H163.3C163.7 28.9 164 28.6 164 28.2C164 27.8 163.7 27.5 163.3 27.5H152.5C152.1 27.5 151.7 27.8 151.7 28.3V44.6C151.7 45.1 152 45.4 152.5 45.4H163.6C164 45.4 164.3 45.1 164.3 44.7C164.2 44.2 163.9 43.9 163.5 43.9Z" fill="#E30613"/>
<path d="M179.4 28.2C179.4 27.8 179.1 27.5 178.7 27.5H166.2C165.8 27.5 165.5 27.8 165.5 28.2C165.5 28.6 165.8 28.9 166.2 28.9H171.7V44.7C171.7 45.2 172 45.5 172.5 45.5C173 45.5 173.3 45.2 173.3 44.7V28.9H178.8C179.1 28.9 179.4 28.6 179.4 28.2Z" fill="#E30613"/>
<path d="M186.8 28.0999C186.6 27.5999 186.3 27.3999 185.8 27.3999C185.4 27.3999 185.1 27.5999 184.8 28.0999L177.7 44.2999C177.6 44.4999 177.5 44.5999 177.5 44.7999C177.5 45.1999 177.8 45.4999 178.3 45.4999C178.7 45.4999 178.9 45.0999 179 44.9999L181.3 39.6999H190.2L192.5 44.9999C192.6 45.2999 192.9 45.4999 193.3 45.4999C193.7 45.4999 194.1 45.1999 194.1 44.6999C194.1 44.5999 194.1 44.3999 194 44.2999L186.8 28.0999ZM189.6 38.2999H182L185.8 29.5999L189.6 38.2999Z" fill="#E30613"/>
<path d="M197.6 27.3C197.1 27.3 196.8 27.6 196.8 28.1V44.6C196.8 45.1 197.1 45.4001 197.6 45.4001C198.1 45.4001 198.4 45.1 198.4 44.6V28.1C198.4 27.7 198.1 27.3 197.6 27.3Z" fill="#E30613"/>
<path d="M214.5 43.9001H205V28.1C205 27.7 204.7 27.3 204.2 27.3C203.8 27.3 203.4 27.6 203.4 28.1V44.6C203.4 45.1 203.7 45.4001 204.2 45.4001H214.5C214.9 45.4001 215.2 45.1 215.2 44.7001C215.3 44.2001 215 43.9001 214.5 43.9001Z" fill="#E30613"/>
<path d="M111.2 29.4H107.1V45.2H112.2V34.2C112.6 33.7 113.7 33.1 114.7 33.1C116.2 33.1 117.1 33.9 117.1 35.4V45.1H122.2V34.8C122.2 31 120.5 29.1 116.9 29.1C114.2 29.1 112.7 29.9 111.6 31.2L111.2 29.4ZM89.7 37.9C89.7 43.2 91.7 45.5 95.5 45.5C97.8 45.5 99.4 44.7 100.3 43.4L100.6 45.1H104.8V30.1C103.1 29.6 101.2 29.1 97.6001 29.1C92.5001 29.1 89.7 32.2 89.7 37.9ZM99.6001 40.3C99.1001 40.8 98.4001 41.4 97.1001 41.4C95.7001 41.4 95 40.1 95 37.7C95 34.7 95.8 33.2 97.5 33.2C98.5 33.2 98.9001 33.3 99.6001 33.4V40.3ZM78 23.5H72.9001V45.2H78V34.2C78.4001 33.7 79.5 33.1 80.5 33.1C82 33.1 82.9001 33.9 82.9001 35.4V45.1H88V34.8C88 31 86.3 29.1 82.7 29.1C80.5 29.1 79.3 29.6 78 30.4V23.5ZM63.2001 37.2C63.2001 34.9 64.5 33.5 67 33.5C68.3 33.5 69.4001 33.9 70.4001 34.5L71.1 30.2C69.7 29.6 68.2 29.2 65.7 29.2C60.6 29.2 57.8 32.1 57.8 37.5C57.8 42.9 60.4 45.6 65.6 45.6C68.1 45.6 70.4001 44.8 71.4001 44.2L70.7 40.2C69.6 40.8 68.4001 41.3 67 41.3C64.5 41.1 63.2001 39.6 63.2001 37.2ZM51.8 45.2H55.9001V29.4H50.8V40.3C50.4 40.8 49.3 41.4 48.3 41.4C46.8 41.4 45.9001 40.6 45.9001 39.1V29.4H40.8V39.8C40.8 43.6 42.5 45.5 46.1 45.5C48.8 45.5 50.3001 44.7 51.4001 43.4L51.8 45.2ZM34.2001 45.2H40.1C37.8 38.8 34.4 29.6 31.8 23.5H25.1C22.4001 29.6 19.1 38.8 16.8 45.2H22.7001C23.2001 43.7 23.8 41.8 24.4 39.7H32.4001C33.1001 41.7 33.7001 43.6 34.2001 45.2ZM31.1 35.5H25.7001C26.5001 32.9 27.4 30.2 28.4 27.6C29.4 30.2 30.3 32.9 31.1 35.5Z" fill="#E30613"/>
<path d="M129 17.5C129.4 17.5 129.8 17.8 129.8 18.3V50.7C129.8 51.1 129.5 51.5 129 51.5" fill="#E30613"/>
<path d="M129 51.5C128.6 51.5 128.2 51.2 128.2 50.7V18.3C128.2 17.9 128.5 17.5 129 17.5" fill="#E30613"/>
</svg>